<?xml version="1.0" ?><svg id="Layer_1" style="enable-background:new 0 0 50 50;" version="1.1" viewBox="0 0 50 50" xml:space="preserve" xmlns="http://www.w3.org/2000/svg" xmlns:xlink="http://www.w3.org/1999/xlink"><style type="text/css">
	.st0{fill:#F0C4DB;}
	.st1{fill:#FF9D9C;}
	.st2{fill:#9BEAF9;}
	.st3{fill:#E9F4BC;}
	.st4{fill:#505050;}
	.st5{fill:#FEBECC;}
	.st6{fill:#FFFFFF;}
	.st7{fill:#FDE4A1;}
	.st8{fill:#FEE7B5;}
	.st9{fill:#CDF6FC;}
	.st10{fill:#F2C6DD;}
	.st11{opacity:0.1;}
</style><g><path class="st5" d="M0.96,28.03c2.43,0.98,5.08,1.54,7.87,1.54c11.6,0,21-9.4,21-21c0-2.62-0.5-5.13-1.38-7.44H0.96V28.03z"/><g><path class="st2" d="M48.29,20.46c0,10.12-8.2,18.33-18.32,18.33c-10.13,0-18.33-8.21-18.33-18.33c0-10.12,8.21-18.33,18.33-18.33    C40.08,2.12,48.29,10.34,48.29,20.46z"/><path class="st6" d="M29.97,34.34c-7.65,0-13.88-6.23-13.88-13.88S22.31,6.58,29.97,6.58c7.65,0,13.87,6.23,13.87,13.88    S37.61,34.34,29.97,34.34z"/><path class="st1" d="M14.17,29.77L3.64,40.29c-1.79,1.8-1.79,4.7,0,6.48c1.8,1.8,4.7,1.8,6.48,0l10.53-10.53h0.01"/></g><g><path class="st4" d="M29.96,1.37c-4.84,0-9.46,1.82-13,5.12C13.44,9.78,11.3,14.22,10.94,19c-0.02,0.2,0.05,0.4,0.18,0.55    s0.31,0.24,0.51,0.26c0.41,0.03,0.76-0.28,0.8-0.68v-0.01c0.69-9.11,8.39-16.25,17.53-16.25c9.68,0.02,17.56,7.91,17.58,17.58    c-0.02,9.68-7.9,17.57-17.58,17.59c-8.7,0-16.18-6.49-17.4-15.1c-0.06-0.4-0.45-0.7-0.85-0.63c-0.2,0.03-0.37,0.13-0.49,0.29    c-0.13,0.16-0.18,0.36-0.15,0.55c0.32,2.29,1.07,4.48,2.17,6.48L3.1,39.77c-2.08,2.08-2.07,5.47,0,7.54    c1.01,1.01,2.35,1.57,3.77,1.57c0,0,0,0,0.01,0c1.42,0,2.76-0.56,3.76-1.57l10.14-10.14c2.79,1.53,5.94,2.37,9.17,2.37    c10.52,0,19.08-8.56,19.08-19.09C49.04,9.93,40.48,1.37,29.96,1.37z M6.88,47.38C6.88,47.38,6.88,47.38,6.88,47.38    c-1.03,0-1.99-0.4-2.72-1.13c-1.49-1.49-1.49-3.93,0-5.42l0.82-0.82l5.42,5.42l-0.82,0.82C8.86,46.97,7.9,47.37,6.88,47.38z     M11.47,44.37l-5.42-5.42l7.99-7.99c0.94,1.42,2.06,2.72,3.36,3.86c0.65,0.57,1.35,1.08,2.07,1.55L11.47,44.37z"/><path class="st4" d="M11.64,21.81h0.03c0.2-0.01,0.38-0.09,0.52-0.24c0.14-0.14,0.21-0.34,0.2-0.53    c-0.01-0.41-0.34-0.73-0.75-0.73h-0.02c-0.2,0.01-0.39,0.09-0.52,0.24c-0.14,0.14-0.21,0.33-0.21,0.53    C10.91,21.49,11.24,21.81,11.64,21.81z"/><path class="st4" d="M29.96,35.09c8.06,0,14.62-6.56,14.62-14.63c0-8.07-6.56-14.63-14.62-14.63c-8.07,0-14.63,6.56-14.63,14.63    C15.33,28.52,21.89,35.09,29.96,35.09z M29.96,7.33c7.24,0,13.12,5.89,13.12,13.13c0,7.24-5.89,13.13-13.12,13.13    c-7.24,0-13.13-5.89-13.13-13.13C16.83,13.22,22.72,7.33,29.96,7.33z"/><path class="st4" d="M29.96,26.83c-1.55,0-2.81-1.26-2.81-2.81c0-0.41-0.34-0.75-0.75-0.75s-0.75,0.34-0.75,0.75    c0,2.12,1.54,3.88,3.56,4.23v1.16c0,0.41,0.34,0.75,0.75,0.75s0.75-0.34,0.75-0.75v-1.16c2.02-0.36,3.56-2.11,3.56-4.23    c0-2.38-1.93-4.31-4.31-4.31c-1.55,0-2.81-1.26-2.81-2.81s1.26-2.81,2.81-2.81s2.81,1.26,2.81,2.81c0,0.41,0.34,0.75,0.75,0.75    s0.75-0.34,0.75-0.75c0-2.12-1.54-3.88-3.56-4.23V11.5c0-0.41-0.34-0.75-0.75-0.75s-0.75,0.34-0.75,0.75v1.16    c-2.02,0.36-3.56,2.11-3.56,4.23c0,2.38,1.93,4.31,4.31,4.31c1.55,0,2.81,1.26,2.81,2.81S31.51,26.83,29.96,26.83z"/></g></g></svg>